<svg xmlns="http://www.w3.org/2000/svg" xmlns:xlink="http://www.w3.org/1999/xlink" width="500" zoomAndPan="magnify" viewBox="0 0 375 374.999991" height="500" preserveAspectRatio="xMidYMid meet" version="1.0"><defs><clipPath id="f834ffb30e"><path d="M 187.5 0 C 83.945312 0 0 83.945312 0 187.5 C 0 291.054688 83.945312 375 187.5 375 C 291.054688 375 375 291.054688 375 187.5 C 375 83.945312 291.054688 0 187.5 0 Z M 187.5 0 " clip-rule="nonzero"/></clipPath><clipPath id="0c9bca4ba1"><path d="M 34.300781 34 L 339 34 L 339 341.894531 L 34.300781 341.894531 Z M 34.300781 34 " clip-rule="nonzero"/></clipPath></defs><g clip-path="url(#f834ffb30e)"><rect x="-37.5" width="450" fill="#ffffff" y="-37.499999" height="449.999989" fill-opacity="1"/></g><path fill="#000000" d="M 315.835938 273.992188 C 315.835938 274.386719 315.761719 274.769531 315.609375 275.132812 C 315.457031 275.496094 315.242188 275.820312 314.964844 276.097656 C 314.683594 276.378906 314.363281 276.59375 314 276.742188 C 313.632812 276.894531 313.253906 276.96875 312.859375 276.96875 C 312.464844 276.96875 312.085938 276.894531 311.71875 276.742188 C 311.355469 276.59375 311.03125 276.378906 310.753906 276.097656 C 310.476562 275.820312 310.261719 275.496094 310.109375 275.132812 C 309.957031 274.769531 309.882812 274.386719 309.882812 273.992188 C 309.882812 273.597656 309.957031 273.21875 310.109375 272.855469 C 310.261719 272.488281 310.476562 272.167969 310.753906 271.886719 C 311.03125 271.609375 311.355469 271.394531 311.71875 271.242188 C 312.085938 271.09375 312.464844 271.015625 312.859375 271.015625 C 313.253906 271.015625 313.632812 271.09375 314 271.242188 C 314.363281 271.394531 314.683594 271.609375 314.964844 271.886719 C 315.242188 272.167969 315.457031 272.488281 315.609375 272.855469 C 315.761719 273.21875 315.835938 273.597656 315.835938 273.992188 Z M 315.835938 273.992188 " fill-opacity="1" fill-rule="nonzero"/><path fill="#000000" d="M 277.238281 307.550781 C 277.5625 307.878906 277.816406 308.257812 277.992188 308.683594 C 278.171875 309.113281 278.261719 309.558594 278.261719 310.023438 C 278.261719 310.484375 278.171875 310.929688 277.992188 311.359375 C 277.816406 311.789062 277.5625 312.164062 277.238281 312.492188 C 276.910156 312.820312 276.53125 313.074219 276.101562 313.25 C 275.675781 313.425781 275.230469 313.515625 274.765625 313.515625 C 274.304688 313.515625 273.855469 313.425781 273.429688 313.25 C 273 313.074219 272.625 312.820312 272.296875 312.492188 C 271.96875 312.164062 271.714844 311.789062 271.539062 311.359375 C 271.359375 310.929688 271.273438 310.484375 271.273438 310.023438 C 271.273438 309.558594 271.359375 309.113281 271.539062 308.683594 C 271.714844 308.257812 271.96875 307.878906 272.296875 307.550781 C 272.625 307.222656 273 306.972656 273.429688 306.792969 C 273.855469 306.617188 274.304688 306.527344 274.765625 306.527344 C 275.230469 306.527344 275.675781 306.617188 276.101562 306.792969 C 276.53125 306.972656 276.910156 307.222656 277.238281 307.550781 Z M 277.238281 307.550781 " fill-opacity="1" fill-rule="nonzero"/><path fill="#000000" d="M 247 292.738281 C 247.097656 293.160156 247.113281 293.585938 247.042969 294.015625 C 246.972656 294.445312 246.824219 294.84375 246.597656 295.214844 C 246.367188 295.582031 246.078125 295.894531 245.722656 296.148438 C 245.371094 296.402344 244.984375 296.582031 244.5625 296.679688 C 244.136719 296.78125 243.710938 296.796875 243.28125 296.726562 C 242.851562 296.65625 242.453125 296.507812 242.085938 296.277344 C 241.714844 296.050781 241.402344 295.761719 241.148438 295.40625 C 240.894531 295.054688 240.71875 294.667969 240.617188 294.242188 C 240.515625 293.820312 240.503906 293.394531 240.570312 292.964844 C 240.640625 292.535156 240.789062 292.136719 241.019531 291.765625 C 241.246094 291.398438 241.539062 291.085938 241.890625 290.832031 C 242.242188 290.578125 242.632812 290.398438 243.054688 290.300781 C 243.476562 290.199219 243.902344 290.183594 244.332031 290.253906 C 244.761719 290.324219 245.160156 290.472656 245.53125 290.703125 C 245.902344 290.929688 246.214844 291.222656 246.46875 291.574219 C 246.722656 291.925781 246.898438 292.3125 247 292.738281 Z M 247 292.738281 " fill-opacity="1" fill-rule="nonzero"/><path fill="#000000" d="M 199.175781 317.953125 C 199.175781 318.34375 199.101562 318.71875 198.953125 319.078125 C 198.800781 319.4375 198.589844 319.753906 198.3125 320.03125 C 198.039062 320.308594 197.71875 320.519531 197.359375 320.667969 C 197 320.816406 196.625 320.894531 196.234375 320.894531 C 195.84375 320.894531 195.46875 320.816406 195.109375 320.667969 C 194.75 320.519531 194.433594 320.308594 194.15625 320.03125 C 193.878906 319.753906 193.667969 319.4375 193.519531 319.078125 C 193.371094 318.71875 193.296875 318.34375 193.296875 317.953125 C 193.296875 317.5625 193.371094 317.1875 193.519531 316.828125 C 193.667969 316.46875 193.878906 316.148438 194.15625 315.875 C 194.433594 315.597656 194.75 315.386719 195.109375 315.234375 C 195.46875 315.085938 195.84375 315.011719 196.234375 315.011719 C 196.625 315.011719 197 315.085938 197.359375 315.234375 C 197.71875 315.386719 198.039062 315.597656 198.3125 315.875 C 198.589844 316.148438 198.800781 316.46875 198.953125 316.828125 C 199.101562 317.1875 199.175781 317.5625 199.175781 317.953125 Z M 199.175781 317.953125 " fill-opacity="1" fill-rule="nonzero"/><path fill="#000000" d="M 227.96875 244.121094 C 228.425781 244.308594 228.832031 244.578125 229.183594 244.929688 C 229.535156 245.28125 229.804688 245.683594 229.992188 246.144531 C 230.183594 246.601562 230.277344 247.078125 230.277344 247.574219 C 230.277344 248.070312 230.183594 248.546875 229.992188 249.003906 C 229.804688 249.464844 229.535156 249.867188 229.183594 250.21875 C 228.832031 250.570312 228.425781 250.839844 227.96875 251.03125 C 227.511719 251.21875 227.035156 251.3125 226.539062 251.3125 C 226.042969 251.3125 225.566406 251.21875 225.105469 251.03125 C 224.648438 250.839844 224.246094 250.570312 223.894531 250.21875 C 223.542969 249.867188 223.273438 249.464844 223.082031 249.003906 C 222.894531 248.546875 222.796875 248.070312 222.796875 247.574219 C 222.796875 247.078125 222.894531 246.601562 223.082031 246.144531 C 223.273438 245.683594 223.542969 245.28125 223.894531 244.929688 C 224.246094 244.578125 224.648438 244.308594 225.105469 244.121094 C 225.566406 243.929688 226.042969 243.835938 226.539062 243.835938 C 227.035156 243.835938 227.511719 243.929688 227.96875 244.121094 Z M 227.96875 244.121094 " fill-opacity="1" fill-rule="nonzero"/><path fill="#000000" d="M 306.417969 77.625 C 306.417969 77.964844 306.355469 78.289062 306.226562 78.601562 C 306.09375 78.914062 305.910156 79.191406 305.671875 79.429688 C 305.433594 79.667969 305.15625 79.855469 304.84375 79.984375 C 304.53125 80.113281 304.207031 80.179688 303.867188 80.179688 C 303.527344 80.179688 303.203125 80.113281 302.890625 79.984375 C 302.578125 79.855469 302.300781 79.667969 302.0625 79.429688 C 301.824219 79.191406 301.636719 78.914062 301.507812 78.601562 C 301.378906 78.289062 301.3125 77.964844 301.3125 77.625 C 301.3125 77.285156 301.378906 76.960938 301.507812 76.648438 C 301.636719 76.335938 301.824219 76.058594 302.0625 75.820312 C 302.300781 75.582031 302.578125 75.398438 302.890625 75.265625 C 303.203125 75.136719 303.527344 75.074219 303.867188 75.074219 C 304.207031 75.074219 304.53125 75.136719 304.84375 75.265625 C 305.15625 75.398438 305.433594 75.582031 305.671875 75.820312 C 305.910156 76.058594 306.09375 76.335938 306.226562 76.648438 C 306.355469 76.960938 306.417969 77.285156 306.417969 77.625 Z M 306.417969 77.625 " fill-opacity="1" fill-rule="nonzero"/><path fill="#000000" d="M 330.609375 122.585938 C 331.949219 122.585938 333.039062 121.5 333.039062 120.15625 C 333.039062 118.816406 331.949219 117.726562 330.609375 117.726562 C 329.269531 117.726562 328.179688 118.816406 328.179688 120.15625 C 328.179688 121.5 329.269531 122.585938 330.609375 122.585938 Z M 330.609375 122.585938 " fill-opacity="1" fill-rule="nonzero"/><path fill="#000000" d="M 235.890625 111.207031 C 236.1875 111.503906 236.417969 111.847656 236.578125 112.234375 C 236.738281 112.621094 236.816406 113.023438 236.816406 113.445312 C 236.816406 113.863281 236.738281 114.265625 236.578125 114.652344 C 236.417969 115.042969 236.1875 115.382812 235.890625 115.679688 C 235.59375 115.976562 235.253906 116.203125 234.867188 116.363281 C 234.480469 116.527344 234.074219 116.605469 233.65625 116.605469 C 233.238281 116.605469 232.832031 116.527344 232.445312 116.363281 C 232.058594 116.203125 231.71875 115.976562 231.421875 115.679688 C 231.125 115.382812 230.894531 115.042969 230.734375 114.652344 C 230.574219 114.265625 230.496094 113.863281 230.496094 113.445312 C 230.496094 113.023438 230.574219 112.621094 230.734375 112.234375 C 230.894531 111.847656 231.125 111.503906 231.421875 111.207031 C 231.71875 110.914062 232.058594 110.683594 232.445312 110.523438 C 232.832031 110.363281 233.238281 110.28125 233.65625 110.28125 C 234.074219 110.28125 234.480469 110.363281 234.867188 110.523438 C 235.253906 110.683594 235.59375 110.914062 235.890625 111.207031 Z M 235.890625 111.207031 " fill-opacity="1" fill-rule="nonzero"/><path fill="#000000" d="M 264.28125 119.265625 C 264.578125 119.558594 264.804688 119.902344 264.964844 120.289062 C 265.128906 120.675781 265.207031 121.082031 265.207031 121.5 C 265.207031 121.917969 265.128906 122.320312 264.964844 122.710938 C 264.804688 123.097656 264.578125 123.4375 264.28125 123.734375 C 263.984375 124.03125 263.644531 124.257812 263.253906 124.421875 C 262.867188 124.582031 262.464844 124.660156 262.046875 124.660156 C 261.625 124.660156 261.222656 124.582031 260.835938 124.421875 C 260.449219 124.257812 260.105469 124.03125 259.808594 123.734375 C 259.515625 123.4375 259.285156 123.097656 259.125 122.710938 C 258.964844 122.320312 258.882812 121.917969 258.882812 121.5 C 258.882812 121.082031 258.964844 120.675781 259.125 120.289062 C 259.285156 119.902344 259.515625 119.558594 259.808594 119.265625 C 260.105469 118.96875 260.449219 118.738281 260.835938 118.578125 C 261.222656 118.417969 261.625 118.335938 262.046875 118.335938 C 262.464844 118.335938 262.867188 118.417969 263.253906 118.578125 C 263.644531 118.738281 263.984375 118.96875 264.28125 119.265625 Z M 264.28125 119.265625 " fill-opacity="1" fill-rule="nonzero"/><path fill="#000000" d="M 268.738281 145.089844 C 269.125 145.25 269.46875 145.480469 269.765625 145.777344 C 270.0625 146.074219 270.289062 146.414062 270.449219 146.800781 C 270.609375 147.1875 270.691406 147.59375 270.691406 148.011719 C 270.691406 148.429688 270.609375 148.832031 270.449219 149.222656 C 270.289062 149.609375 270.0625 149.949219 269.765625 150.246094 C 269.46875 150.542969 269.125 150.773438 268.738281 150.933594 C 268.351562 151.09375 267.949219 151.171875 267.527344 151.171875 C 267.109375 151.171875 266.707031 151.09375 266.320312 150.933594 C 265.933594 150.773438 265.589844 150.542969 265.292969 150.246094 C 264.996094 149.949219 264.769531 149.609375 264.609375 149.222656 C 264.449219 148.832031 264.367188 148.429688 264.367188 148.011719 C 264.367188 147.59375 264.449219 147.1875 264.609375 146.800781 C 264.769531 146.414062 264.996094 146.074219 265.292969 145.777344 C 265.589844 145.480469 265.933594 145.25 266.320312 145.089844 C 266.707031 144.929688 267.109375 144.851562 267.527344 144.851562 C 267.949219 144.851562 268.351562 144.929688 268.738281 145.089844 Z M 268.738281 145.089844 " fill-opacity="1" fill-rule="nonzero"/><path fill="#000000" d="M 268.277344 206.578125 C 268.375 206.988281 268.390625 207.398438 268.324219 207.8125 C 268.253906 208.226562 268.113281 208.609375 267.890625 208.96875 C 267.671875 209.324219 267.390625 209.625 267.050781 209.871094 C 266.710938 210.113281 266.335938 210.285156 265.929688 210.382812 C 265.519531 210.476562 265.109375 210.492188 264.695312 210.425781 C 264.28125 210.359375 263.894531 210.214844 263.539062 209.996094 C 263.183594 209.773438 262.882812 209.492188 262.636719 209.152344 C 262.390625 208.8125 262.222656 208.4375 262.125 208.03125 C 262.027344 207.625 262.015625 207.210938 262.082031 206.796875 C 262.148438 206.382812 262.292969 206 262.511719 205.644531 C 262.734375 205.285156 263.011719 204.984375 263.351562 204.742188 C 263.695312 204.496094 264.066406 204.324219 264.476562 204.226562 C 264.882812 204.132812 265.292969 204.117188 265.707031 204.183594 C 266.121094 204.25 266.507812 204.394531 266.863281 204.617188 C 267.21875 204.835938 267.523438 205.117188 267.765625 205.457031 C 268.011719 205.796875 268.183594 206.171875 268.277344 206.578125 Z M 268.277344 206.578125 " fill-opacity="1" fill-rule="nonzero"/><path fill="#000000" d="M 233.65625 79.28125 C 232.289062 79.28125 231.183594 80.386719 231.183594 81.753906 C 231.183594 83.117188 232.289062 84.226562 233.65625 84.226562 C 235.023438 84.226562 236.128906 83.117188 236.128906 81.753906 C 236.128906 80.386719 235.023438 79.28125 233.65625 79.28125 Z M 233.65625 79.28125 " fill-opacity="1" fill-rule="nonzero"/><path fill="#000000" d="M 223.484375 38.394531 C 224.960938 38.394531 226.160156 37.195312 226.160156 35.71875 C 226.160156 34.246094 224.960938 33.042969 223.484375 33.042969 C 222.007812 33.042969 220.808594 34.246094 220.808594 35.71875 C 220.808594 37.195312 222.007812 38.394531 223.484375 38.394531 Z M 223.484375 38.394531 " fill-opacity="1" fill-rule="nonzero"/><g clip-path="url(#0c9bca4ba1)"><path fill="#000000" d="M 334.699219 188.761719 C 336.65625 188.761719 338.238281 187.175781 338.238281 185.226562 C 338.238281 183.277344 336.648438 181.6875 334.699219 181.6875 C 332.75 181.6875 331.164062 183.277344 331.164062 185.226562 C 331.164062 185.953125 331.386719 186.628906 331.761719 187.195312 L 315.757812 199.015625 C 315.265625 198.820312 314.734375 198.714844 314.175781 198.714844 C 313.4375 198.714844 312.742188 198.898438 312.132812 199.230469 L 282.242188 172.660156 C 283.15625 171.589844 283.71875 170.207031 283.71875 168.6875 C 283.71875 168.429688 283.699219 168.175781 283.667969 167.929688 L 315.066406 164.441406 C 315.484375 165.929688 316.851562 167.019531 318.46875 167.019531 C 320.425781 167.019531 322.003906 165.433594 322.003906 163.484375 C 322.003906 161.921875 320.992188 160.59375 319.582031 160.125 L 321.882812 145.546875 C 321.882812 145.546875 321.917969 145.546875 321.929688 145.546875 C 323.59375 145.546875 324.9375 144.199219 324.9375 142.539062 C 324.9375 140.878906 323.59375 139.53125 321.929688 139.53125 C 320.269531 139.53125 318.921875 140.878906 318.921875 142.539062 C 318.921875 143.78125 319.675781 144.847656 320.746094 145.300781 L 318.429688 159.941406 C 317.785156 159.941406 317.183594 160.125 316.660156 160.433594 L 289.007812 127.425781 C 290.398438 126.566406 291.332031 125.027344 291.332031 123.269531 C 291.332031 123.066406 291.3125 122.863281 291.289062 122.667969 L 307.113281 122.667969 C 307.113281 122.667969 307.113281 122.691406 307.113281 122.710938 C 307.113281 124.371094 308.460938 125.71875 310.121094 125.71875 C 311.78125 125.71875 313.128906 124.371094 313.128906 122.710938 C 313.128906 121.050781 311.78125 119.703125 310.121094 119.703125 C 308.886719 119.703125 307.828125 120.445312 307.367188 121.511719 L 291 121.511719 C 290.527344 120.292969 289.589844 119.316406 288.398438 118.792969 L 286.449219 94.375 C 287.746094 93.832031 288.65625 92.558594 288.65625 91.066406 C 288.65625 89.085938 287.050781 87.480469 285.070312 87.480469 C 283.089844 87.480469 281.484375 89.085938 281.484375 91.066406 C 281.484375 91.238281 281.503906 91.402344 281.519531 91.5625 L 258.792969 98.722656 C 258.414062 96.453125 256.476562 94.71875 254.121094 94.652344 L 245.035156 65.976562 C 245.6875 65.359375 246.167969 64.574219 246.40625 63.6875 L 259.414062 66.117188 C 259.5 67.789062 260.867188 69.117188 262.558594 69.117188 C 264.25 69.117188 265.71875 67.703125 265.71875 65.957031 C 265.71875 64.210938 264.304688 62.796875 262.558594 62.796875 C 261.273438 62.796875 260.164062 63.570312 259.671875 64.671875 L 246.566406 62.222656 C 246.460938 59.617188 244.320312 57.53125 241.6875 57.53125 C 240.21875 57.53125 238.902344 58.183594 238.011719 59.210938 L 195.183594 44.160156 C 195.492188 43.347656 195.667969 42.472656 195.667969 41.558594 C 195.667969 37.523438 192.398438 34.25 188.363281 34.25 C 184.328125 34.25 181.054688 37.523438 181.054688 41.558594 C 181.054688 41.96875 181.097656 42.375 181.164062 42.769531 L 137.371094 50.144531 C 136.503906 47.789062 134.25 46.101562 131.589844 46.101562 C 128.191406 46.101562 125.429688 48.863281 125.429688 52.265625 C 125.429688 52.59375 125.457031 52.90625 125.507812 53.21875 L 66.859375 99.089844 C 65.816406 97.226562 63.824219 95.960938 61.527344 95.960938 C 58.152344 95.960938 55.421875 98.699219 55.421875 102.066406 C 55.421875 104.546875 56.898438 106.675781 59.019531 107.632812 L 38.019531 184.117188 C 35.832031 185.046875 34.300781 187.21875 34.300781 189.746094 C 34.300781 192.273438 35.921875 194.558594 38.203125 195.441406 L 53.894531 257.550781 C 51.777344 259.164062 50.414062 261.699219 50.414062 264.5625 C 50.414062 269.4375 54.363281 273.382812 59.234375 273.382812 C 60.59375 273.382812 61.871094 273.070312 63.023438 272.515625 L 101.1875 311.640625 C 100.835938 312.417969 100.632812 313.273438 100.632812 314.175781 C 100.632812 317.554688 103.371094 320.285156 106.742188 320.285156 C 109.105469 320.285156 111.144531 318.941406 112.167969 316.988281 L 155.097656 332.160156 C 155.0625 332.492188 155.039062 332.824219 155.039062 333.164062 C 155.039062 338.015625 158.972656 341.953125 163.828125 341.953125 C 168.296875 341.953125 171.976562 338.613281 172.535156 334.296875 L 225.550781 327.414062 C 225.871094 329.621094 227.765625 331.316406 230.058594 331.316406 C 232.574219 331.316406 234.617188 329.277344 234.617188 326.761719 C 234.617188 326.558594 234.597656 326.359375 234.574219 326.171875 L 259.347656 322.320312 L 259.273438 321.164062 L 234.277344 325.042969 C 234.042969 324.472656 233.699219 323.957031 233.269531 323.523438 L 265.3125 285.027344 C 265.847656 285.179688 266.421875 285.269531 267.003906 285.269531 C 268.316406 285.269531 269.527344 284.847656 270.523438 284.148438 L 285.777344 288.996094 C 285.777344 288.996094 285.777344 289 285.777344 289.007812 C 285.777344 291.074219 287.449219 292.746094 289.515625 292.746094 C 291.582031 292.746094 293.257812 291.074219 293.257812 289.007812 C 293.257812 286.941406 291.582031 285.269531 289.515625 285.269531 C 287.863281 285.269531 286.453125 286.34375 285.96875 287.839844 L 271.539062 283.257812 C 272.523438 282.171875 273.125 280.734375 273.125 279.160156 C 273.125 276.730469 271.703125 274.632812 269.644531 273.648438 L 270.726562 256.746094 C 271.132812 256.894531 271.570312 256.988281 272.023438 256.988281 C 274.089844 256.988281 275.765625 255.3125 275.765625 253.246094 C 275.765625 252.75 275.664062 252.269531 275.488281 251.832031 L 299.273438 239.695312 C 299.648438 240.207031 300.144531 240.625 300.722656 240.894531 L 295.371094 259.53125 C 293.386719 259.617188 291.792969 261.253906 291.792969 263.265625 C 291.792969 265.277344 293.464844 267.007812 295.53125 267.007812 C 297.597656 267.007812 299.273438 265.332031 299.273438 263.265625 C 299.273438 261.550781 298.117188 260.105469 296.535156 259.667969 L 301.832031 241.222656 C 301.984375 241.242188 302.136719 241.253906 302.292969 241.253906 C 303.675781 241.253906 304.886719 240.496094 305.535156 239.378906 L 318.714844 244.433594 C 318.707031 244.519531 318.691406 244.597656 318.691406 244.683594 C 318.691406 246.328125 320.023438 247.664062 321.667969 247.664062 C 323.308594 247.664062 324.644531 246.328125 324.644531 244.683594 C 324.644531 243.042969 323.308594 241.707031 321.667969 241.707031 C 320.523438 241.707031 319.539062 242.367188 319.039062 243.3125 L 305.953125 238.292969 C 306.007812 238.042969 306.039062 237.777344 306.039062 237.511719 C 306.039062 237.019531 305.9375 236.546875 305.765625 236.117188 L 313.738281 231.375 L 313.148438 230.378906 L 305.175781 235.121094 C 304.488281 234.296875 303.453125 233.769531 302.296875 233.769531 C 301.386719 233.769531 300.558594 234.09375 299.90625 234.636719 L 284.085938 220.722656 C 284.394531 220.132812 284.566406 219.460938 284.566406 218.753906 C 284.566406 218.121094 284.425781 217.523438 284.183594 216.980469 L 310.398438 205.03125 C 311.125 206.382812 312.546875 207.308594 314.1875 207.308594 C 314.839844 207.308594 315.453125 207.160156 316.007812 206.894531 L 327.332031 220.101562 L 328.210938 219.351562 L 316.992188 206.261719 C 317.902344 205.472656 318.488281 204.3125 318.488281 203.015625 C 318.488281 201.714844 317.851562 200.441406 316.863281 199.65625 L 332.578125 188.050781 C 333.175781 188.503906 333.914062 188.773438 334.71875 188.773438 Z M 67.347656 103.9375 L 80.160156 109.425781 C 79.5 110.574219 79.113281 111.902344 79.113281 113.324219 C 79.113281 115.390625 79.917969 117.273438 81.230469 118.667969 L 64.226562 143.605469 C 63.996094 143.523438 63.753906 143.46875 63.507812 143.445312 L 62.308594 108.125 C 64.683594 107.820312 66.632812 106.160156 67.347656 103.933594 Z M 208.136719 233.957031 C 207.386719 233.300781 206.476562 232.828125 205.46875 232.597656 L 205.179688 197.109375 C 205.351562 197.117188 205.523438 197.132812 205.695312 197.132812 C 208.128906 197.132812 210.34375 196.222656 212.035156 194.730469 C 218.785156 202.042969 233.667969 218.195312 240.089844 225.308594 C 239.234375 226.160156 238.699219 227.328125 238.65625 228.621094 L 208.136719 233.945312 Z M 217.910156 277.40625 C 217.910156 277.996094 218.019531 278.5625 218.210938 279.09375 L 186.632812 282.671875 C 186.109375 281.421875 185.214844 280.367188 184.09375 279.632812 L 202.816406 244.519531 C 203.242188 244.609375 203.675781 244.660156 204.125 244.660156 C 205.140625 244.660156 206.101562 244.410156 206.945312 243.972656 L 219.964844 273.425781 C 218.722656 274.3125 217.910156 275.765625 217.910156 277.40625 Z M 131.996094 279.011719 C 131.933594 276.636719 130.390625 274.640625 128.246094 273.914062 L 141.070312 243.019531 C 141.679688 243.152344 142.3125 243.226562 142.957031 243.226562 C 144.335938 243.226562 145.632812 242.902344 146.789062 242.335938 L 175.496094 280.734375 C 174.503906 281.816406 173.871094 283.21875 173.761719 284.769531 L 131.996094 279.007812 Z M 99.742188 233.101562 C 100.734375 232.445312 101.527344 231.511719 101.992188 230.402344 L 134.199219 235.011719 C 134.425781 238.558594 136.75 241.53125 139.949219 242.699219 L 127.09375 273.660156 C 126.886719 273.636719 126.675781 273.625 126.46875 273.625 C 125.292969 273.625 124.203125 273.992188 123.304688 274.621094 L 99.738281 233.109375 Z M 63.777344 213.988281 L 78.984375 184.144531 C 80.523438 185.460938 82.507812 186.253906 84.691406 186.253906 C 84.730469 186.253906 84.773438 186.253906 84.808594 186.253906 L 94.914062 222.085938 C 92.96875 222.566406 91.390625 223.96875 90.683594 225.816406 L 65.328125 217.46875 C 65.355469 217.289062 65.371094 217.113281 65.371094 216.933594 C 65.371094 215.703125 64.738281 214.621094 63.777344 213.992188 Z M 94.722656 112.253906 L 111.257812 105.597656 C 111.570312 106.707031 112.40625 107.585938 113.484375 107.972656 L 113.632812 133.152344 C 113.242188 133.363281 112.90625 133.644531 112.632812 133.992188 L 93.460938 117.722656 C 94.3125 116.46875 94.808594 114.953125 94.808594 113.332031 C 94.808594 112.96875 94.777344 112.609375 94.730469 112.261719 Z M 241.007812 224.609375 C 234.566406 217.457031 219.632812 201.253906 212.859375 193.921875 C 214.378906 192.226562 215.308594 189.988281 215.308594 187.53125 C 215.308594 187.261719 215.289062 186.996094 215.265625 186.734375 L 245.644531 184.585938 C 246 186.097656 247.066406 187.347656 248.46875 187.949219 L 243.25 223.914062 C 242.433594 223.964844 241.664062 224.210938 241 224.617188 Z M 180.445312 278.558594 C 178.902344 278.558594 177.488281 279.085938 176.351562 279.960938 L 147.804688 241.777344 C 149.636719 240.558594 150.984375 238.667969 151.5 236.460938 L 198.03125 238.984375 C 198.183594 241.226562 199.542969 243.128906 201.46875 244.0625 L 183.046875 279.085938 C 182.25 278.746094 181.363281 278.5625 180.441406 278.5625 Z M 102.363281 229.214844 C 102.441406 228.828125 102.480469 228.429688 102.480469 228.015625 C 102.480469 225.574219 101.039062 223.472656 98.972656 222.492188 L 112.085938 200.890625 C 112.960938 201.371094 113.964844 201.648438 115.027344 201.648438 C 116.480469 201.648438 117.8125 201.136719 118.863281 200.289062 L 139.394531 226.421875 C 136.53125 227.695312 134.480469 230.453125 134.210938 233.71875 Z M 92.234375 181.960938 L 109.097656 194.082031 C 108.980469 194.550781 108.914062 195.035156 108.914062 195.539062 C 108.914062 197.429688 109.769531 199.113281 111.117188 200.238281 L 98.058594 222.15625 C 97.523438 222 96.957031 221.914062 96.371094 221.914062 C 96.242188 221.914062 96.121094 221.925781 95.992188 221.933594 L 86.015625 186.160156 C 88.660156 185.761719 90.917969 184.179688 92.234375 181.972656 Z M 114.738281 108.1875 C 116.449219 108.164062 117.867188 106.933594 118.1875 105.308594 L 141.285156 109.816406 C 141.285156 109.859375 141.277344 109.910156 141.277344 109.953125 C 141.277344 111.132812 141.695312 112.222656 142.390625 113.070312 L 117.128906 133.527344 C 116.582031 133.066406 115.882812 132.777344 115.105469 132.777344 C 115.070312 132.777344 115.035156 132.792969 114.996094 132.792969 L 114.746094 108.195312 Z M 167.746094 94.535156 C 167.746094 94.535156 167.757812 94.535156 167.769531 94.535156 L 179.75 129.808594 C 179.542969 129.960938 179.34375 130.132812 179.171875 130.332031 L 150.664062 112.074219 C 150.972656 111.429688 151.148438 110.714844 151.148438 109.953125 C 151.148438 109.097656 150.929688 108.292969 150.546875 107.589844 L 165.449219 93.53125 C 166.027344 94.144531 166.839844 94.539062 167.75 94.539062 Z M 199.398438 99.378906 C 199.871094 99.378906 200.332031 99.335938 200.785156 99.277344 L 209.085938 137.535156 C 208.304688 137.859375 207.65625 138.445312 207.238281 139.175781 L 185.402344 132.914062 C 185.402344 132.839844 185.417969 132.773438 185.417969 132.699219 C 185.417969 131.40625 184.726562 130.28125 183.707031 129.652344 L 196.199219 98.863281 C 197.207031 99.195312 198.285156 99.378906 199.402344 99.378906 Z M 236.257812 152.363281 L 211.457031 179.855469 C 210.125 178.855469 208.53125 178.191406 206.785156 177.992188 L 210.761719 144.921875 C 212.351562 144.839844 213.679688 143.808594 214.1875 142.375 L 235.113281 148.371094 C 235.070312 148.625 235.046875 148.886719 235.046875 149.152344 C 235.046875 150.382812 235.507812 151.507812 236.257812 152.363281 Z M 197.003906 191.609375 L 174.917969 201.59375 C 174.265625 200.761719 173.25 200.222656 172.105469 200.222656 C 171.527344 200.222656 170.980469 200.363281 170.496094 200.609375 L 149.949219 172.566406 C 151.414062 171.65625 152.632812 170.402344 153.480469 168.902344 L 196.886719 183.695312 C 196.371094 184.871094 196.082031 186.167969 196.082031 187.53125 C 196.082031 188.992188 196.414062 190.367188 196.996094 191.609375 Z M 144.933594 225.894531 L 144.335938 174.105469 C 144.410156 174.105469 144.476562 174.117188 144.542969 174.117188 C 146.113281 174.117188 147.59375 173.753906 148.929688 173.128906 L 169.558594 201.292969 C 168.925781 201.9375 168.53125 202.816406 168.53125 203.796875 C 168.53125 204.484375 168.730469 205.125 169.066406 205.671875 L 147.910156 227.199219 C 147.015625 226.589844 146.007812 226.148438 144.925781 225.894531 Z M 146.210938 114.890625 C 147.765625 114.890625 149.152344 114.171875 150.054688 113.046875 L 178.550781 131.296875 C 178.367188 131.726562 178.261719 132.199219 178.261719 132.699219 C 178.261719 133.371094 178.445312 133.992188 178.773438 134.527344 L 152.183594 156.976562 C 150.457031 155.050781 148.011719 153.785156 145.265625 153.59375 L 145.816406 114.867188 C 145.945312 114.878906 146.074219 114.886719 146.207031 114.886719 Z M 209.613281 144.804688 L 205.628906 177.929688 C 205 177.929688 204.390625 178 203.792969 178.117188 L 183.859375 135.644531 C 184.433594 135.25 184.882812 134.699219 185.144531 134.046875 L 206.8125 140.257812 C 206.757812 140.523438 206.722656 140.800781 206.722656 141.082031 C 206.722656 142.871094 207.953125 144.378906 209.613281 144.804688 Z M 152.914062 157.878906 L 179.523438 135.417969 C 180.144531 135.953125 180.957031 136.273438 181.84375 136.273438 C 182.179688 136.273438 182.507812 136.222656 182.8125 136.136719 L 202.664062 178.421875 C 200.449219 179.160156 198.597656 180.679688 197.429688 182.65625 L 154.011719 167.855469 C 154.535156 166.621094 154.828125 165.261719 154.828125 163.832031 C 154.828125 161.605469 154.113281 159.558594 152.914062 157.875 Z M 118.257812 135.933594 C 118.257812 135.226562 118.015625 134.585938 117.628906 134.058594 L 143.320312 113.953125 C 143.734375 114.246094 144.1875 114.488281 144.679688 114.644531 L 144.121094 153.582031 C 141.117188 153.703125 138.449219 155.105469 136.648438 157.265625 L 117.234375 138.242188 C 117.855469 137.664062 118.25 136.851562 118.25 135.933594 Z M 137.253906 171.085938 L 119.082031 190.984375 C 117.996094 190.023438 116.582031 189.433594 115.027344 189.433594 C 112.578125 189.433594 110.476562 190.871094 109.496094 192.953125 L 92.769531 180.925781 C 93.222656 179.867188 93.476562 178.699219 93.476562 177.476562 C 93.476562 175.925781 93.070312 174.472656 92.367188 173.214844 L 134.714844 166.867188 C 135.214844 168.476562 136.09375 169.917969 137.25 171.085938 Z M 142.957031 225.667969 C 142.113281 225.667969 141.308594 225.789062 140.539062 226.011719 L 119.695312 199.476562 C 120.59375 198.414062 121.136719 197.042969 121.136719 195.539062 C 121.136719 194.144531 120.660156 192.859375 119.867188 191.832031 L 138.117188 171.855469 C 139.542969 173 141.277344 173.761719 143.171875 174.019531 L 143.769531 225.710938 C 143.5 225.683594 143.226562 225.667969 142.957031 225.667969 Z M 169.832031 206.542969 C 170.445312 207.054688 171.238281 207.363281 172.105469 207.363281 C 172.875 207.363281 173.589844 207.117188 174.167969 206.703125 L 200.320312 233.785156 C 199.09375 234.765625 198.253906 236.195312 198.054688 237.832031 L 151.699219 235.324219 C 151.726562 235.039062 151.742188 234.75 151.742188 234.457031 C 151.742188 231.859375 150.609375 229.535156 148.820312 227.925781 L 169.832031 206.550781 Z M 201.308594 233.140625 L 174.992188 205.886719 C 175.421875 205.296875 175.679688 204.570312 175.679688 203.789062 C 175.679688 203.371094 175.605469 202.976562 175.476562 202.609375 L 197.5625 192.625 C 198.976562 194.882812 201.304688 196.507812 204.027344 196.984375 L 204.316406 232.464844 C 204.253906 232.464844 204.195312 232.453125 204.125 232.453125 C 203.113281 232.453125 202.160156 232.703125 201.316406 233.140625 Z M 245.503906 183.429688 L 215.097656 185.582031 C 214.699219 183.640625 213.710938 181.917969 212.332031 180.601562 L 237.105469 153.136719 C 237.90625 153.703125 238.878906 154.035156 239.921875 154.035156 C 240.304688 154.035156 240.675781 153.988281 241.03125 153.90625 L 248.71875 178.867188 C 246.847656 179.550781 245.507812 181.332031 245.496094 183.4375 Z M 235.421875 147.25 L 214.40625 141.222656 C 214.40625 141.175781 214.410156 141.125 214.410156 141.074219 C 214.410156 138.953125 212.6875 137.230469 210.566406 137.230469 C 210.441406 137.230469 210.320312 137.238281 210.199219 137.25 L 201.914062 99.054688 C 202.824219 98.828125 203.675781 98.480469 204.472656 98.027344 L 237.523438 144.890625 C 236.582031 145.417969 235.839844 146.25 235.414062 147.25 Z M 195.101562 98.433594 L 182.617188 129.210938 C 182.367188 129.15625 182.101562 129.117188 181.832031 129.117188 C 181.460938 129.117188 181.105469 129.175781 180.773438 129.277344 L 168.894531 94.300781 C 170.0625 93.839844 170.894531 92.707031 170.894531 91.371094 C 170.894531 91.285156 170.875 91.199219 170.871094 91.113281 L 189.222656 90.503906 C 189.710938 94.035156 191.984375 96.992188 195.109375 98.425781 Z M 164.582031 91.378906 C 164.582031 91.816406 164.667969 92.226562 164.828125 92.609375 L 149.902344 106.695312 C 148.996094 105.667969 147.675781 105.015625 146.199219 105.015625 C 146.160156 105.015625 146.132812 105.015625 146.09375 105.015625 L 133.972656 57.941406 C 134.550781 57.703125 135.078125 57.378906 135.546875 56.976562 L 165.519531 89.128906 C 164.941406 89.699219 164.578125 90.492188 164.578125 91.367188 Z M 131.589844 58.429688 C 132.066406 58.429688 132.527344 58.367188 132.96875 58.269531 L 144.933594 105.1875 C 143.226562 105.636719 141.894531 106.96875 141.4375 108.675781 L 118.207031 104.140625 C 118.039062 102.917969 117.261719 101.894531 116.183594 101.386719 L 130.859375 58.378906 C 131.097656 58.410156 131.339844 58.429688 131.585938 58.429688 Z M 113.355469 138.554688 C 113.851562 138.886719 114.449219 139.078125 115.089844 139.078125 C 115.488281 139.078125 115.863281 138.996094 116.214844 138.863281 L 135.941406 158.199219 C 134.875 159.816406 134.253906 161.753906 134.253906 163.832031 C 134.253906 164.480469 134.320312 165.113281 134.4375 165.726562 L 91.65625 172.144531 C 91.277344 171.652344 90.855469 171.195312 90.382812 170.796875 Z M 249.582031 188.269531 C 249.84375 188.3125 250.109375 188.34375 250.386719 188.34375 C 253.085938 188.34375 255.277344 186.15625 255.277344 183.453125 C 255.277344 183.003906 255.207031 182.570312 255.097656 182.15625 L 272.804688 172.464844 C 273.210938 172.972656 273.691406 173.421875 274.238281 173.785156 L 244.511719 223.226562 L 249.582031 188.277344 Z M 254.65625 181.074219 C 253.816406 179.578125 252.21875 178.566406 250.386719 178.566406 C 250.203125 178.566406 250.023438 178.578125 249.851562 178.59375 L 242.125 153.511719 C 242.96875 153.089844 243.664062 152.429688 244.144531 151.625 L 273.273438 164.382812 C 272.179688 165.488281 271.5 167.007812 271.5 168.679688 C 271.5 169.6875 271.753906 170.644531 272.183594 171.484375 L 254.660156 181.074219 Z M 274.277344 163.558594 L 244.605469 150.558594 C 244.738281 150.113281 244.8125 149.636719 244.8125 149.144531 C 244.8125 148.480469 244.679688 147.847656 244.4375 147.269531 L 282.363281 125.957031 C 282.820312 126.652344 283.453125 127.21875 284.191406 127.605469 L 276.207031 162.738281 C 275.503906 162.898438 274.855469 163.183594 274.269531 163.5625 Z M 281.851562 124.917969 L 243.871094 146.261719 C 243.257812 145.417969 242.382812 144.777344 241.363281 144.464844 L 253.179688 104.335938 C 253.441406 104.378906 253.714844 104.410156 253.992188 104.410156 C 255.34375 104.410156 256.574219 103.859375 257.460938 102.964844 L 281.742188 121.949219 C 281.625 122.367188 281.558594 122.800781 281.558594 123.257812 C 281.558594 123.839844 281.664062 124.394531 281.851562 124.910156 Z M 252.066406 104.019531 L 240.210938 144.269531 C 240.121094 144.269531 240.023438 144.257812 239.929688 144.257812 C 239.480469 144.257812 239.042969 144.324219 238.625 144.433594 L 205.441406 97.386719 C 207.234375 96.078125 208.585938 94.214844 209.230469 92.042969 L 249.113281 99.234375 C 249.113281 99.332031 249.101562 99.421875 249.101562 99.523438 C 249.101562 101.539062 250.320312 103.265625 252.066406 104.019531 Z M 189.117188 89.335938 L 170.511719 89.902344 C 169.984375 88.90625 168.945312 88.214844 167.738281 88.214844 C 167.320312 88.214844 166.921875 88.304688 166.558594 88.449219 L 136.214844 56.324219 C 136.726562 55.746094 137.125 55.078125 137.390625 54.339844 L 189.875 85.203125 C 189.382812 86.402344 189.105469 87.710938 189.105469 89.089844 C 189.105469 89.171875 189.117188 89.25 189.117188 89.335938 Z M 129.4375 58.027344 L 115.027344 101.058594 C 114.910156 101.046875 114.792969 101.039062 114.675781 101.039062 C 112.703125 101.039062 111.101562 102.640625 111.101562 104.613281 C 111.101562 104.625 111.101562 104.644531 111.101562 104.65625 L 94.484375 111.175781 C 94.078125 109.757812 93.285156 108.5 92.226562 107.535156 L 128.320312 57.480469 C 128.667969 57.703125 129.042969 57.886719 129.433594 58.035156 Z M 92.722656 118.621094 L 112.082031 135.046875 C 112 135.324219 111.941406 135.621094 111.941406 135.921875 C 111.941406 136.597656 112.15625 137.21875 112.519531 137.730469 L 89.457031 170.09375 C 88.242188 169.308594 86.820312 168.808594 85.289062 168.707031 L 88.027344 121.082031 C 89.875 120.828125 91.511719 119.929688 92.71875 118.613281 Z M 84.132812 168.707031 C 81.910156 168.839844 79.914062 169.792969 78.4375 171.28125 L 65.441406 149.34375 C 66.117188 148.722656 66.546875 147.828125 66.546875 146.832031 C 66.546875 145.746094 66.035156 144.777344 65.242188 144.15625 L 82.078125 119.46875 C 83.394531 120.515625 85.054688 121.148438 86.855469 121.167969 L 84.121094 168.710938 Z M 63.140625 150.246094 C 63.613281 150.246094 64.0625 150.148438 64.472656 149.976562 L 77.648438 172.21875 C 76.554688 173.679688 75.894531 175.496094 75.894531 177.46875 C 75.894531 177.710938 75.914062 177.945312 75.933594 178.175781 L 46.003906 187.296875 C 45.589844 186.363281 44.957031 185.558594 44.164062 184.9375 L 61.855469 149.996094 C 62.253906 150.160156 62.691406 150.246094 63.144531 150.246094 Z M 46.359375 188.394531 L 76.097656 179.332031 C 76.445312 180.921875 77.21875 182.347656 78.296875 183.484375 L 62.738281 213.53125 C 62.457031 213.457031 62.15625 213.414062 61.847656 213.414062 C 61.257812 213.414062 60.703125 213.5625 60.210938 213.820312 L 45.007812 193.757812 C 45.941406 192.679688 46.515625 191.285156 46.515625 189.746094 C 46.515625 189.28125 46.457031 188.832031 46.359375 188.394531 Z M 62.519531 220.371094 C 63.582031 220.167969 64.472656 219.480469 64.960938 218.550781 L 90.355469 226.910156 C 90.296875 227.265625 90.253906 227.628906 90.253906 228.003906 C 90.253906 229.824219 91.050781 231.449219 92.3125 232.566406 L 66.40625 259.433594 C 65.09375 257.601562 63.101562 256.292969 60.796875 255.878906 L 62.519531 220.363281 Z M 67.03125 260.457031 L 93.265625 233.261719 C 94.175781 233.796875 95.234375 234.113281 96.367188 234.113281 C 97.214844 234.113281 98.027344 233.941406 98.757812 233.625 L 122.492188 275.304688 C 122.027344 275.789062 121.644531 276.355469 121.375 276.984375 L 67.90625 266.070312 C 67.992188 265.578125 68.046875 265.074219 68.046875 264.558594 C 68.046875 263.074219 67.679688 261.6875 67.03125 260.457031 Z M 131.898438 280.175781 L 173.765625 285.945312 C 174.03125 288.546875 175.785156 290.699219 178.15625 291.558594 L 168.933594 326.015625 C 167.492188 324.984375 165.726562 324.367188 163.820312 324.367188 C 161.914062 324.367188 160.0625 325.011719 158.605469 326.097656 L 128.183594 284.398438 C 130.085938 283.777344 131.53125 282.160156 131.898438 280.167969 Z M 169.898438 326.828125 L 179.265625 291.859375 C 179.648438 291.929688 180.035156 291.972656 180.441406 291.972656 C 182.308594 291.972656 184 291.203125 185.21875 289.964844 L 226.046875 324.566406 C 225.769531 325.074219 225.585938 325.640625 225.519531 326.242188 L 172.605469 333.101562 C 172.585938 330.636719 171.550781 328.414062 169.898438 326.828125 Z M 226.707031 323.660156 L 185.945312 289.097656 C 186.707031 288.011719 187.15625 286.6875 187.15625 285.261719 C 187.15625 284.757812 187.09375 284.265625 186.992188 283.792969 L 218.785156 280.1875 C 219.570312 281.324219 220.824219 282.105469 222.269531 282.265625 L 228.734375 322.394531 C 227.949219 322.632812 227.257812 323.074219 226.710938 323.660156 Z M 220.972656 272.875 L 207.921875 243.339844 C 209.328125 242.21875 210.234375 240.496094 210.234375 238.558594 C 210.234375 237.21875 209.796875 235.980469 209.066406 234.972656 L 238.753906 229.789062 C 239.050781 231.191406 239.941406 232.371094 241.160156 233.054688 L 225.90625 273.636719 C 225.0625 272.941406 223.980469 272.523438 222.800781 272.523438 C 222.15625 272.523438 221.546875 272.652344 220.980469 272.875 Z M 226.773438 274.582031 L 242.222656 233.492188 C 242.640625 233.609375 243.078125 233.675781 243.535156 233.675781 C 244.746094 233.675781 245.847656 233.230469 246.703125 232.507812 L 269.246094 250.738281 C 268.640625 251.402344 268.273438 252.28125 268.273438 253.246094 C 268.273438 253.542969 268.308594 253.832031 268.378906 254.109375 L 227.199219 275.304688 C 227.074219 275.050781 226.941406 274.8125 226.78125 274.582031 Z M 272.007812 249.5 C 271.339844 249.5 270.714844 249.679688 270.171875 249.980469 L 247.476562 231.652344 C 248.0625 230.847656 248.410156 229.855469 248.410156 228.785156 C 248.410156 228.398438 248.363281 228.023438 248.277344 227.660156 L 276.113281 219.886719 C 276.476562 221.207031 277.457031 222.273438 278.722656 222.75 L 272.695312 249.5625 C 272.472656 249.519531 272.238281 249.496094 272.007812 249.496094 Z M 275.960938 218.730469 L 247.882812 226.570312 C 247.335938 225.496094 246.402344 224.652344 245.261719 224.222656 L 275.265625 174.328125 C 275.90625 174.589844 276.601562 174.746094 277.320312 174.777344 L 279.480469 214.523438 C 277.484375 214.886719 275.96875 216.625 275.960938 218.730469 Z M 315.78125 161.171875 C 315.289062 161.742188 314.980469 162.472656 314.9375 163.28125 L 283.414062 166.785156 C 282.617188 164.339844 280.320312 162.566406 277.609375 162.566406 C 277.554688 162.566406 277.5 162.574219 277.441406 162.574219 L 285.296875 128.003906 C 285.667969 128.097656 286.054688 128.148438 286.453125 128.148438 C 286.96875 128.148438 287.46875 128.066406 287.929688 127.917969 L 315.785156 161.164062 Z M 285.078125 94.636719 C 285.15625 94.636719 285.234375 94.632812 285.308594 94.625 L 287.210938 118.441406 C 286.957031 118.40625 286.707031 118.375 286.449219 118.375 C 284.628906 118.375 283.046875 119.371094 282.203125 120.839844 L 258.167969 102.054688 C 258.554688 101.421875 258.800781 100.691406 258.863281 99.910156 L 281.878906 92.65625 C 282.46875 93.832031 283.675781 94.636719 285.078125 94.636719 Z M 252.945312 94.753906 C 251.210938 95.128906 249.828125 96.421875 249.308594 98.101562 L 209.488281 90.921875 C 209.59375 90.332031 209.664062 89.722656 209.664062 89.101562 C 209.664062 86.785156 208.886719 84.65625 207.589844 82.933594 L 237.769531 65.328125 C 238.664062 66.527344 240.082031 67.304688 241.6875 67.304688 C 242.542969 67.304688 243.351562 67.082031 244.050781 66.695312 Z M 237.339844 60.199219 C 237.003906 60.863281 236.804688 61.621094 236.804688 62.421875 C 236.804688 63.097656 236.945312 63.742188 237.191406 64.332031 L 206.839844 82.035156 C 204.964844 80.0625 202.324219 78.820312 199.382812 78.820312 C 198.578125 78.820312 197.796875 78.921875 197.039062 79.09375 L 190.003906 48.671875 C 192.003906 48.210938 193.683594 46.933594 194.683594 45.210938 Z M 181.441406 43.902344 C 182.421875 46.792969 185.144531 48.871094 188.363281 48.871094 C 188.527344 48.871094 188.695312 48.859375 188.859375 48.847656 L 195.933594 79.433594 C 193.554688 80.28125 191.574219 81.980469 190.375 84.167969 L 137.679688 53.1875 C 137.722656 52.886719 137.753906 52.585938 137.753906 52.273438 C 137.753906 51.925781 137.71875 51.59375 137.667969 51.269531 Z M 125.828125 54.441406 C 126.167969 55.339844 126.707031 56.140625 127.402344 56.78125 L 91.320312 106.816406 C 90.074219 105.972656 88.566406 105.488281 86.949219 105.488281 C 84.464844 105.488281 82.25 106.652344 80.8125 108.457031 L 67.582031 102.792969 C 67.605469 102.558594 67.625 102.328125 67.625 102.085938 C 67.625 101.429688 67.519531 100.796875 67.320312 100.199219 L 125.820312 54.441406 Z M 60.113281 108.011719 C 60.453125 108.089844 60.796875 108.140625 61.152344 108.164062 L 62.351562 143.519531 C 60.851562 143.875 59.738281 145.222656 59.738281 146.832031 C 59.738281 147.84375 60.179688 148.746094 60.875 149.375 L 43.1875 184.304688 C 42.355469 183.878906 41.414062 183.632812 40.414062 183.632812 C 40.042969 183.632812 39.679688 183.671875 39.332031 183.730469 Z M 39.484375 195.773438 C 39.785156 195.824219 40.09375 195.855469 40.414062 195.855469 C 41.832031 195.855469 43.144531 195.363281 44.183594 194.550781 L 59.308594 214.507812 C 58.710938 215.136719 58.34375 215.984375 58.34375 216.921875 C 58.34375 218.691406 59.652344 220.148438 61.351562 220.394531 L 59.253906 255.738281 C 59.253906 255.738281 59.238281 255.738281 59.234375 255.738281 C 57.664062 255.738281 56.195312 256.148438 54.917969 256.871094 Z M 64.066406 271.925781 C 65.753906 270.820312 67.03125 269.160156 67.648438 267.191406 L 121.042969 278.089844 C 120.976562 278.433594 120.9375 278.785156 120.9375 279.148438 C 120.9375 280.742188 121.613281 282.171875 122.695312 283.183594 L 108.136719 308.226562 C 107.6875 308.125 107.222656 308.0625 106.742188 308.0625 C 104.699219 308.0625 102.902344 309.066406 101.789062 310.601562 Z M 112.597656 315.910156 C 112.761719 315.355469 112.851562 314.777344 112.851562 314.167969 C 112.851562 311.691406 111.375 309.5625 109.25 308.601562 L 123.621094 283.882812 C 124.449219 284.382812 125.421875 284.675781 126.46875 284.675781 C 126.621094 284.675781 126.769531 284.664062 126.917969 284.652344 L 157.738281 326.828125 C 156.574219 327.949219 155.71875 329.386719 155.3125 331.003906 Z M 232.308594 322.792969 C 231.644531 322.410156 230.871094 322.191406 230.050781 322.191406 C 229.992188 322.191406 229.921875 322.195312 229.859375 322.203125 L 223.421875 282.246094 C 225.800781 281.945312 227.648438 279.929688 227.683594 277.476562 L 260.902344 279.394531 C 260.988281 281.613281 262.257812 283.53125 264.101562 284.53125 Z M 268.554688 273.242188 C 268.058594 273.113281 267.539062 273.035156 267 273.035156 C 263.9375 273.035156 261.410156 275.292969 260.964844 278.230469 L 227.5625 276.304688 C 227.546875 276.25 227.535156 276.203125 227.519531 276.152344 L 268.882812 255.265625 C 269.140625 255.65625 269.472656 256.003906 269.851562 256.277344 L 268.550781 273.242188 Z M 299.136719 235.484375 C 298.769531 236.0625 298.550781 236.75 298.550781 237.488281 C 298.550781 237.894531 298.621094 238.289062 298.742188 238.65625 L 274.921875 250.871094 C 274.609375 250.492188 274.226562 250.171875 273.789062 249.933594 L 279.6875 222.980469 C 279.878906 223.003906 280.074219 223.023438 280.273438 223.023438 C 281.515625 223.023438 282.628906 222.492188 283.414062 221.652344 L 299.144531 235.484375 Z M 283.5625 215.980469 C 282.851562 215.132812 281.816406 214.558594 280.648438 214.453125 L 278.488281 174.703125 C 279.582031 174.542969 280.585938 174.097656 281.417969 173.441406 L 311.191406 199.90625 C 310.386719 200.6875 309.886719 201.777344 309.886719 202.984375 C 309.886719 203.304688 309.925781 203.617188 309.992188 203.917969 L 283.5625 215.96875 Z M 283.5625 215.980469 " fill-opacity="1" fill-rule="nonzero"/></g><path fill="#000000" d="M 340.222656 205.0625 C 340.222656 205.398438 340.160156 205.722656 340.03125 206.03125 C 339.902344 206.34375 339.71875 206.617188 339.480469 206.855469 C 339.242188 207.089844 338.96875 207.273438 338.660156 207.402344 C 338.347656 207.53125 338.027344 207.597656 337.691406 207.597656 C 337.351562 207.597656 337.03125 207.53125 336.71875 207.402344 C 336.410156 207.273438 336.136719 207.089844 335.898438 206.855469 C 335.660156 206.617188 335.476562 206.34375 335.347656 206.03125 C 335.21875 205.722656 335.15625 205.398438 335.15625 205.0625 C 335.15625 204.726562 335.21875 204.402344 335.347656 204.09375 C 335.476562 203.78125 335.660156 203.507812 335.898438 203.269531 C 336.136719 203.03125 336.410156 202.847656 336.71875 202.722656 C 337.03125 202.59375 337.351562 202.527344 337.691406 202.527344 C 338.027344 202.527344 338.347656 202.59375 338.660156 202.722656 C 338.96875 202.847656 339.242188 203.03125 339.480469 203.269531 C 339.71875 203.507812 339.902344 203.78125 340.03125 204.09375 C 340.160156 204.402344 340.222656 204.726562 340.222656 205.0625 Z M 340.222656 205.0625 " fill-opacity="1" fill-rule="nonzero"/><path fill="#000000" d="M 295.433594 197.457031 C 295.527344 197.84375 295.539062 198.234375 295.476562 198.628906 C 295.410156 199.023438 295.273438 199.390625 295.066406 199.730469 C 294.855469 200.066406 294.589844 200.355469 294.265625 200.585938 C 293.941406 200.820312 293.585938 200.984375 293.199219 201.074219 C 292.808594 201.167969 292.417969 201.179688 292.023438 201.117188 C 291.632812 201.050781 291.265625 200.914062 290.925781 200.707031 C 290.585938 200.496094 290.300781 200.230469 290.066406 199.90625 C 289.832031 199.582031 289.671875 199.226562 289.578125 198.839844 C 289.488281 198.449219 289.472656 198.058594 289.539062 197.664062 C 289.601562 197.273438 289.738281 196.90625 289.949219 196.566406 C 290.15625 196.226562 290.425781 195.941406 290.746094 195.707031 C 291.070312 195.472656 291.425781 195.3125 291.816406 195.21875 C 292.203125 195.128906 292.59375 195.113281 292.988281 195.179688 C 293.382812 195.242188 293.75 195.378906 294.085938 195.589844 C 294.425781 195.796875 294.714844 196.066406 294.945312 196.390625 C 295.179688 196.710938 295.34375 197.070312 295.433594 197.457031 Z M 295.433594 197.457031 " fill-opacity="1" fill-rule="nonzero"/><path fill="#000000" d="M 308.078125 219.597656 C 308.078125 220.59375 308.890625 221.40625 309.886719 221.40625 C 310.882812 221.40625 311.695312 220.59375 311.695312 219.597656 C 311.695312 218.601562 310.882812 217.789062 309.886719 217.789062 C 308.890625 217.789062 308.078125 218.601562 308.078125 219.597656 Z M 308.078125 219.597656 " fill-opacity="1" fill-rule="nonzero"/><path fill="#000000" d="M 262.699219 230.636719 C 261.703125 230.636719 260.890625 231.449219 260.890625 232.445312 C 260.890625 233.441406 261.703125 234.253906 262.699219 234.253906 C 263.695312 234.253906 264.507812 233.441406 264.507812 232.445312 C 264.507812 231.449219 263.695312 230.636719 262.699219 230.636719 Z M 262.699219 230.636719 " fill-opacity="1" fill-rule="nonzero"/><path fill="#000000" d="M 255.953125 164.757812 C 254.957031 164.757812 254.144531 165.570312 254.144531 166.566406 C 254.144531 167.5625 254.957031 168.375 255.953125 168.375 C 256.949219 168.375 257.761719 167.5625 257.761719 166.566406 C 257.761719 165.570312 256.949219 164.757812 255.953125 164.757812 Z M 255.953125 164.757812 " fill-opacity="1" fill-rule="nonzero"/><path fill="#000000" d="M 245.625 251.425781 C 244.628906 251.425781 243.816406 252.238281 243.816406 253.234375 C 243.816406 254.230469 244.628906 255.042969 245.625 255.042969 C 246.621094 255.042969 247.433594 254.230469 247.433594 253.234375 C 247.433594 252.238281 246.621094 251.425781 245.625 251.425781 Z M 245.625 251.425781 " fill-opacity="1" fill-rule="nonzero"/><path fill="#000000" d="M 214.867188 293.417969 C 213.871094 293.417969 213.058594 294.230469 213.058594 295.226562 C 213.058594 296.222656 213.871094 297.035156 214.867188 297.035156 C 215.863281 297.035156 216.675781 296.222656 216.675781 295.226562 C 216.675781 294.230469 215.863281 293.417969 214.867188 293.417969 Z M 214.867188 293.417969 " fill-opacity="1" fill-rule="nonzero"/><path fill="#000000" d="M 316.355469 181.539062 C 316.449219 181.925781 316.460938 182.316406 316.398438 182.710938 C 316.332031 183.105469 316.195312 183.472656 315.988281 183.808594 C 315.777344 184.148438 315.511719 184.4375 315.1875 184.667969 C 314.863281 184.902344 314.507812 185.066406 314.121094 185.15625 C 313.730469 185.246094 313.339844 185.261719 312.945312 185.199219 C 312.554688 185.132812 312.1875 184.996094 311.847656 184.789062 C 311.507812 184.578125 311.222656 184.3125 310.988281 183.988281 C 310.753906 183.664062 310.59375 183.308594 310.5 182.921875 C 310.410156 182.53125 310.394531 182.140625 310.460938 181.746094 C 310.523438 181.355469 310.660156 180.988281 310.871094 180.648438 C 311.078125 180.308594 311.347656 180.023438 311.671875 179.789062 C 311.992188 179.554688 312.347656 179.394531 312.738281 179.300781 C 313.125 179.210938 313.515625 179.195312 313.910156 179.261719 C 314.304688 179.324219 314.671875 179.460938 315.011719 179.671875 C 315.347656 179.878906 315.636719 180.148438 315.867188 180.46875 C 316.101562 180.792969 316.265625 181.148438 316.355469 181.539062 Z M 316.355469 181.539062 " fill-opacity="1" fill-rule="nonzero"/><path fill="#000000" d="M 295.148438 150.347656 C 295.242188 150.734375 295.253906 151.125 295.191406 151.519531 C 295.125 151.914062 294.988281 152.277344 294.78125 152.617188 C 294.570312 152.957031 294.304688 153.242188 293.980469 153.476562 C 293.65625 153.710938 293.300781 153.871094 292.914062 153.964844 C 292.523438 154.054688 292.132812 154.070312 291.738281 154.003906 C 291.347656 153.941406 290.980469 153.804688 290.640625 153.59375 C 290.300781 153.386719 290.015625 153.117188 289.78125 152.796875 C 289.546875 152.472656 289.386719 152.117188 289.292969 151.726562 C 289.203125 151.339844 289.1875 150.949219 289.253906 150.554688 C 289.316406 150.160156 289.453125 149.792969 289.664062 149.457031 C 289.871094 149.117188 290.140625 148.828125 290.464844 148.597656 C 290.785156 148.363281 291.140625 148.199219 291.53125 148.109375 C 291.917969 148.019531 292.308594 148.003906 292.703125 148.066406 C 293.097656 148.132812 293.464844 148.269531 293.804688 148.476562 C 294.140625 148.6875 294.429688 148.953125 294.660156 149.277344 C 294.894531 149.601562 295.058594 149.957031 295.148438 150.347656 Z M 295.148438 150.347656 " fill-opacity="1" fill-rule="nonzero"/><path fill="#000000" d="M 210.847656 61.730469 C 210.941406 62.117188 210.953125 62.507812 210.890625 62.902344 C 210.828125 63.296875 210.691406 63.664062 210.480469 64.003906 C 210.269531 64.339844 210.003906 64.628906 209.679688 64.859375 C 209.355469 65.09375 209 65.257812 208.613281 65.347656 C 208.222656 65.441406 207.832031 65.453125 207.441406 65.390625 C 207.046875 65.324219 206.679688 65.1875 206.339844 64.980469 C 206 64.769531 205.714844 64.503906 205.480469 64.179688 C 205.25 63.855469 205.085938 63.5 204.996094 63.113281 C 204.902344 62.722656 204.890625 62.332031 204.953125 61.9375 C 205.015625 61.546875 205.152344 61.179688 205.363281 60.839844 C 205.574219 60.5 205.839844 60.214844 206.164062 59.980469 C 206.488281 59.746094 206.84375 59.585938 207.230469 59.492188 C 207.617188 59.402344 208.011719 59.386719 208.402344 59.453125 C 208.796875 59.515625 209.164062 59.652344 209.503906 59.863281 C 209.84375 60.074219 210.128906 60.339844 210.363281 60.664062 C 210.59375 60.984375 210.757812 61.34375 210.847656 61.730469 Z M 210.847656 61.730469 " fill-opacity="1" fill-rule="nonzero"/><path fill="#000000" d="M 177.949219 61.726562 C 178.039062 62.117188 178.054688 62.507812 177.992188 62.902344 C 177.925781 63.292969 177.789062 63.660156 177.582031 64 C 177.371094 64.339844 177.105469 64.625 176.78125 64.859375 C 176.457031 65.09375 176.101562 65.253906 175.710938 65.347656 C 175.324219 65.4375 174.933594 65.453125 174.539062 65.386719 C 174.144531 65.324219 173.78125 65.1875 173.441406 64.976562 C 173.101562 64.769531 172.816406 64.5 172.582031 64.179688 C 172.347656 63.855469 172.1875 63.5 172.09375 63.109375 C 172.003906 62.722656 171.988281 62.332031 172.054688 61.9375 C 172.117188 61.542969 172.253906 61.175781 172.464844 60.839844 C 172.671875 60.5 172.941406 60.210938 173.261719 59.980469 C 173.585938 59.746094 173.941406 59.582031 174.332031 59.492188 C 174.71875 59.402344 175.109375 59.386719 175.503906 59.449219 C 175.898438 59.515625 176.265625 59.652344 176.601562 59.859375 C 176.941406 60.070312 177.226562 60.335938 177.460938 60.660156 C 177.695312 60.984375 177.855469 61.339844 177.949219 61.726562 Z M 177.949219 61.726562 " fill-opacity="1" fill-rule="nonzero"/><path fill="#000000" d="M 340.617188 155.054688 C 340.707031 155.441406 340.722656 155.832031 340.660156 156.226562 C 340.59375 156.621094 340.457031 156.988281 340.246094 157.328125 C 340.039062 157.664062 339.773438 157.953125 339.449219 158.183594 C 339.125 158.417969 338.769531 158.582031 338.378906 158.671875 C 337.992188 158.765625 337.601562 158.777344 337.207031 158.714844 C 336.8125 158.648438 336.449219 158.511719 336.109375 158.304688 C 335.769531 158.09375 335.484375 157.828125 335.25 157.503906 C 335.015625 157.179688 334.855469 156.824219 334.761719 156.4375 C 334.671875 156.046875 334.65625 155.65625 334.71875 155.261719 C 334.785156 154.871094 334.921875 154.503906 335.132812 154.164062 C 335.339844 153.824219 335.609375 153.539062 335.929688 153.304688 C 336.253906 153.070312 336.609375 152.910156 337 152.816406 C 337.386719 152.726562 337.777344 152.710938 338.171875 152.777344 C 338.566406 152.839844 338.929688 152.976562 339.269531 153.1875 C 339.609375 153.394531 339.894531 153.664062 340.128906 153.988281 C 340.363281 154.308594 340.523438 154.667969 340.617188 155.054688 Z M 340.617188 155.054688 " fill-opacity="1" fill-rule="nonzero"/><path fill="#000000" d="M 305.441406 103.859375 C 306.15625 104.792969 307.496094 104.964844 308.425781 104.25 C 309.351562 103.539062 309.53125 102.199219 308.816406 101.269531 C 308.105469 100.332031 306.765625 100.160156 305.835938 100.875 C 304.898438 101.589844 304.726562 102.929688 305.441406 103.859375 Z M 305.441406 103.859375 " fill-opacity="1" fill-rule="nonzero"/><path fill="#000000" d="M 262.570312 79.710938 C 261.636719 80.425781 261.464844 81.765625 262.175781 82.695312 C 262.890625 83.621094 264.230469 83.800781 265.160156 83.085938 C 266.09375 82.375 266.265625 81.03125 265.554688 80.105469 C 264.839844 79.167969 263.5 78.996094 262.570312 79.710938 Z M 262.570312 79.710938 " fill-opacity="1" fill-rule="nonzero"/></svg>